<?xml version="1.0" encoding="UTF-8"?>
<svg width="7px" height="4px" viewBox="0 0 7 4" version="1.1" xmlns="http://www.w3.org/2000/svg" xmlns:xlink="http://www.w3.org/1999/xlink">
    <title>arrow down</title>
    <g id="Page-1" stroke="none" stroke-width="1" fill="none" fill-rule="evenodd">
        <g id="Slippage-calculator-popup" transform="translate(-601.000000, -232.000000)" fill="#FFFFFF" fill-rule="nonzero">
            <g id="Group-5" transform="translate(472.000000, 193.000000)">
                <path d="M129.602,39.8480413 C129.535741,39.7729346 129.498471,39.6706963 129.498471,39.5640413 C129.498471,39.4573863 129.535741,39.3551479 129.602,39.2800413 L129.742,39.1200413 C129.807853,39.0419146 129.89909,38.9984684 129.994,39.0000413 L135.006,39.0000413 C135.10091,38.9984684 135.192147,39.0419146 135.258,39.1200413 L135.398,39.2800413 C135.464259,39.3551479 135.501529,39.4573863 135.501529,39.5640413 C135.501529,39.6706963 135.464259,39.7729346 135.398,39.8480413 L132.745,42.8800413 C132.681487,42.9573831 132.59281,43.0012562 132.5,43.0012562 C132.40719,43.0012562 132.318513,42.9573831 132.255,42.8800413 L129.602,39.8480413 Z" id="arrow-down"></path>
            </g>
        </g>
    </g>
</svg>