<?xml version="1.0" encoding="UTF-8"?>
<svg width="10px" height="12px" viewBox="0 0 10 12" version="1.1" xmlns="http://www.w3.org/2000/svg" xmlns:xlink="http://www.w3.org/1999/xlink">
    <title>48FA2DAF-2520-4DC9-857C-263BAA699CF2</title>
    <g id="Page-1" stroke="none" stroke-width="1" fill="none" fill-rule="evenodd">
        <g id="Thorcahin-dashboard-+-actions" transform="translate(-716.000000, -788.000000)" fill="#FFFFFF" fill-rule="nonzero">
            <g id="Group-11-Copy" transform="translate(700.000000, 779.000000)">
                <g id="calculator" transform="translate(16.000000, 9.000000)">
                    <path d="M9.6,1.2 C9.6,0.5372583 9.0627417,0 8.4,0 L1.2,0 C0.5372583,0 0,0.5372583 0,1.2 L0,10.8 C0,11.4627417 0.5372583,12 1.2,12 L8.4,12 C9.0627417,12 9.6,11.4627417 9.6,10.8 L9.6,1.2 Z M3,9.9 C3,10.0656854 2.86568542,10.2 2.7,10.2 L2.1,10.2 C1.93431458,10.2 1.8,10.0656854 1.8,9.9 L1.8,9.3 C1.8,9.13431458 1.93431458,9 2.1,9 L2.7,9 C2.86568542,9 3,9.13431458 3,9.3 L3,9.9 Z M3,7.5 C3,7.66568542 2.86568542,7.8 2.7,7.8 L2.1,7.8 C1.93431458,7.8 1.8,7.66568542 1.8,7.5 L1.8,6.9 C1.8,6.73431458 1.93431458,6.6 2.1,6.6 L2.7,6.6 C2.86568542,6.6 3,6.73431458 3,6.9 L3,7.5 Z M3,5.1 C3,5.26568542 2.86568542,5.4 2.7,5.4 L2.1,5.4 C1.93431458,5.4 1.8,5.26568542 1.8,5.1 L1.8,4.5 C1.8,4.33431458 1.93431458,4.2 2.1,4.2 L2.7,4.2 C2.86568542,4.2 3,4.33431458 3,4.5 L3,5.1 Z M5.4,9.9 C5.4,10.0656854 5.26568542,10.2 5.1,10.2 L4.5,10.2 C4.33431458,10.2 4.2,10.0656854 4.2,9.9 L4.2,9.3 C4.2,9.13431458 4.33431458,9 4.5,9 L5.1,9 C5.26568542,9 5.4,9.13431458 5.4,9.3 L5.4,9.9 Z M5.4,7.5 C5.4,7.66568542 5.26568542,7.8 5.1,7.8 L4.5,7.8 C4.33431458,7.8 4.2,7.66568542 4.2,7.5 L4.2,6.9 C4.2,6.73431458 4.33431458,6.6 4.5,6.6 L5.1,6.6 C5.26568542,6.6 5.4,6.73431458 5.4,6.9 L5.4,7.5 Z M5.4,5.1 C5.4,5.26568542 5.26568542,5.4 5.1,5.4 L4.5,5.4 C4.33431458,5.4 4.2,5.26568542 4.2,5.1 L4.2,4.5 C4.2,4.33431458 4.33431458,4.2 4.5,4.2 L5.1,4.2 C5.26568542,4.2 5.4,4.33431458 5.4,4.5 L5.4,5.1 Z M7.8,9.9 C7.8,10.0656854 7.66568542,10.2 7.5,10.2 L6.9,10.2 C6.73431458,10.2 6.6,10.0656854 6.6,9.9 L6.6,6.9 C6.6,6.73431458 6.73431458,6.6 6.9,6.6 L7.5,6.6 C7.66568542,6.6 7.8,6.73431458 7.8,6.9 L7.8,9.9 Z M7.8,5.1 C7.8,5.26568542 7.66568542,5.4 7.5,5.4 L6.9,5.4 C6.73431458,5.4 6.6,5.26568542 6.6,5.1 L6.6,4.5 C6.6,4.33431458 6.73431458,4.2 6.9,4.2 L7.5,4.2 C7.66568542,4.2 7.8,4.33431458 7.8,4.5 L7.8,5.1 Z M7.8,2.7 C7.8,2.86568542 7.66568542,3 7.5,3 L2.1,3 C1.93431458,3 1.8,2.86568542 1.8,2.7 L1.8,1.5 C1.8,1.33431458 1.93431458,1.2 2.1,1.2 L7.5,1.2 C7.66568542,1.2 7.8,1.33431458 7.8,1.5 L7.8,2.7 Z" id="Icon-color"></path>
                </g>
            </g>
        </g>
    </g>
</svg>