<?xml version="1.0" encoding="UTF-8"?>
<svg width="12px" height="12px" viewBox="0 0 12 12" version="1.1" xmlns="http://www.w3.org/2000/svg" xmlns:xlink="http://www.w3.org/1999/xlink">
    <title>FE74EE45-722A-43AD-BA96-BC3291F331BC</title>
    <g id="Page-1" stroke="none" stroke-width="1" fill="none" fill-rule="evenodd">
        <g id="Slippage-calculator-popup" transform="translate(-969.000000, -121.000000)" fill="#A6B0C3" fill-rule="nonzero">
            <path d="M980.85,131.44 C980.944656,131.533883 980.997899,131.661681 980.997899,131.795 C980.997899,131.928319 980.944656,132.056117 980.85,132.15 L980.15,132.85 C980.056117,132.944656 979.928319,132.997899 979.795,132.997899 C979.661681,132.997899 979.533883,132.944656 979.44,132.85 L975,128.41 L970.56,132.85 C970.466117,132.944656 970.338319,132.997899 970.205,132.997899 C970.071681,132.997899 969.943883,132.944656 969.85,132.85 L969.15,132.15 C969.055344,132.056117 969.002101,131.928319 969.002101,131.795 C969.002101,131.661681 969.055344,131.533883 969.15,131.44 L973.59,127 L969.15,122.56 C969.055344,122.466117 969.002101,122.338319 969.002101,122.205 C969.002101,122.071681 969.055344,121.943883 969.15,121.85 L969.85,121.15 C969.943883,121.055344 970.071681,121.002101 970.205,121.002101 C970.338319,121.002101 970.466117,121.055344 970.56,121.15 L975,125.59 L979.44,121.15 C979.533883,121.055344 979.661681,121.002101 979.795,121.002101 C979.928319,121.002101 980.056117,121.055344 980.15,121.15 L980.85,121.85 C980.944656,121.943883 980.997899,122.071681 980.997899,122.205 C980.997899,122.338319 980.944656,122.466117 980.85,122.56 L976.41,127 L980.85,131.44 Z" id="close"></path>
        </g>
    </g>
</svg>