<?xml version="1.0" encoding="UTF-8"?>
<svg width="13px" height="12px" viewBox="0 0 13 12" version="1.1" xmlns="http://www.w3.org/2000/svg" xmlns:xlink="http://www.w3.org/1999/xlink">
    <title>cube</title>
    <g id="Page-1" stroke="none" stroke-width="1" fill="none" fill-rule="evenodd">
        <g id="Thorcahin-Network-V8" transform="translate(-910.000000, -1295.000000)" fill="#A6B0C3" fill-rule="nonzero">
            <g id="Group-6" transform="translate(150.000000, 1162.000000)">
                <g id="Group-3" transform="translate(596.000000, 131.000000)">
                    <g id="cube" transform="translate(164.000000, 2.000000)">
                        <path d="M5.69285714,0.0785714286 L0.74047619,1.93571429 C0.295238095,2.10238095 -1.69176842e-16,2.53095238 -1.69176842e-16,3.00714286 L-1.69176842e-16,8.36666667 C-1.69176842e-16,8.8 0.245238095,9.1952381 0.630952381,9.38809524 L5.58333333,11.8642857 C5.9047619,12.0261905 6.28333333,12.0261905 6.6047619,11.8642857 L11.5571429,9.38809524 C11.9452381,9.1952381 12.1880952,8.79761905 12.1880952,8.36666667 L12.1880952,3.00714286 C12.1880952,2.53095238 11.8928571,2.1047619 11.447619,1.93809524 L6.4952381,0.080952381 C6.23809524,-0.019047619 5.95238095,-0.019047619 5.69285714,0.0785714286 Z M6.0952381,1.55714286 L10.6666667,3.27142857 L10.6666667,3.29761905 L6.0952381,5.1547619 L1.52380952,3.29761905 L1.52380952,3.27142857 L6.0952381,1.55714286 Z M6.85714286,10.0333333 L6.85714286,6.48809524 L10.6666667,4.94047619 L10.6666667,8.12857143 L6.85714286,10.0333333 Z" id="Shape"></path>
                    </g>
                </g>
            </g>
        </g>
    </g>
</svg>