<?xml version="1.0" encoding="UTF-8"?>
<svg width="9px" height="16px" viewBox="0 0 9 16" version="1.1" xmlns="http://www.w3.org/2000/svg" xmlns:xlink="http://www.w3.org/1999/xlink">
    <title>flash-off copy 2</title>
    <g id="Page-1" stroke="none" stroke-width="1" fill="none" fill-rule="evenodd">
        <g id="Thorcahin-Network-V9" transform="translate(-176.000000, -1338.000000)" fill="#A6B0C3" fill-rule="nonzero">
            <g id="flash-off-copy-2" transform="translate(176.000000, 1338.000000)">
                <path d="M8.91900679,6.22724656 C8.82700679,6.08424656 8.66900679,5.99924656 8.5,5.99924656 L5,5.99924656 L5,0.499246557 C5,0.263246557 4.83500679,0.0592465565 4.60400679,0.0102465565 C4.37100679,-0.0367534435 4.13900679,0.0812465565 4.04300679,0.296246557 L0.0430067944,9.29624656 C-0.0259932056,9.45024656 -0.0109932056,9.63024656 0.0810067944,9.77124656 C0.173006794,9.91324656 0.331006794,9.99924656 0.5,9.99924656 L4,9.99924656 L4,15.4992466 C4,15.7352466 4.16500679,15.9392466 4.39600679,15.9882466 C4.43100679,15.9952466 4.46600679,15.9992466 4.5,15.9992466 C4.69400679,15.9992466 4.87500679,15.8862466 4.95700679,15.7032466 L8.95700679,6.70324656 C9.02500679,6.54824656 9.01200679,6.36924656 8.91900679,6.22724656 Z M5.00000679,13.1432466 L5.00000679,9.49924656 C5.00000679,9.22324656 4.77600679,8.99924656 4.50000679,8.99924656 L1.27000679,8.99924656 L4.00000679,2.85524656 L4.00000679,6.49924656 C4.00000679,6.77524656 4.22400679,6.99924656 4.50000679,6.99924656 L7.73000679,6.99924656 L5.00000679,13.1432466 Z" id="Shape"></path>
            </g>
        </g>
    </g>
</svg>