<?xml version="1.0" encoding="UTF-8"?>
<svg width="9px" height="12px" viewBox="0 0 9 12" version="1.1" xmlns="http://www.w3.org/2000/svg" xmlns:xlink="http://www.w3.org/1999/xlink">
    <title>hourglass</title>
    <g id="Page-1" stroke="none" stroke-width="1" fill="none" fill-rule="evenodd">
        <g id="Thorcahin-Network-V8" transform="translate(-831.000000, -1295.000000)" fill="#A6B0C3" fill-rule="nonzero">
            <g id="Group-6" transform="translate(150.000000, 1162.000000)">
                <g id="Group-3" transform="translate(596.000000, 131.000000)">
                    <g id="hourglass" transform="translate(85.000000, 2.000000)">
                        <path d="M8.4375,0 L0.5625,0 C0.251835937,0 0,0.251835937 0,0.5625 L0,0.9375 C0,1.24816406 0.251835937,1.5 0.5625,1.5 C0.5625,3.63199219 1.7581875,5.43126562 3.39473437,6 C1.7581875,6.56873438 0.5625,8.36800781 0.5625,10.5 C0.251835937,10.5 0,10.7518359 0,11.0625 L0,11.4375 C0,11.7481641 0.251835937,12 0.5625,12 L8.4375,12 C8.74816406,12 9,11.7481641 9,11.4375 L9,11.0625 C9,10.7518359 8.74816406,10.5 8.4375,10.5 C8.4375,8.36800781 7.2418125,6.56873437 5.60526563,6 C7.2418125,5.43126562 8.4375,3.63199219 8.4375,1.5 C8.74816406,1.5 9,1.24816406 9,0.9375 L9,0.5625 C9,0.251835937 8.74816406,0 8.4375,0 Z M6.67785938,9 L2.3221875,9 C2.72200781,7.90319531 3.5431875,7.125 4.5,7.125 C5.45674219,7.125 6.27801563,7.90303125 6.67785938,9 Z M6.67830469,3 L2.32214063,3 C2.15596875,2.54409375 2.0625,2.03315625 2.0625,1.5 L6.9375,1.5 C6.9375,2.03449219 6.84405469,2.54500781 6.67830469,3 L6.67830469,3 Z" id="Shape"></path>
                    </g>
                </g>
            </g>
        </g>
    </g>
</svg>