<?xml version="1.0" encoding="UTF-8"?>
<svg width="14px" height="18px" viewBox="0 0 14 18" version="1.1" xmlns="http://www.w3.org/2000/svg" xmlns:xlink="http://www.w3.org/1999/xlink">
    <title>security_yes</title>
    <g id="Page-1" stroke="none" stroke-width="1" fill="none" fill-rule="evenodd">
        <g id="Thorcahin-Network-V8" transform="translate(-912.000000, -236.000000)" fill="#16CEB9" fill-rule="nonzero">
            <g id="security_yes" transform="translate(912.000000, 236.000000)">
                <path d="M13.09,3.84 L10.4425,1.1925 C10.1606527,0.908970452 9.77728344,0.749683218 9.3775,0.749999528 L4.6225,0.749999528 C4.22271656,0.749683218 3.83934729,0.908970452 3.5575,1.1925 L0.91,3.84 C0.487922538,4.26155207 0.250525156,4.83346395 0.25,5.43 L0.25,9.8175 C0.251389064,11.6679699 1.10655238,13.4142743 2.5675,14.55 L5.6275,16.935 C5.891355,17.139775 6.21600617,17.2506315 6.55,17.2499995 L7.45,17.2499995 C7.78399383,17.2506315 8.108645,17.139775 8.3725,16.935 L11.4325,14.55 C12.8934476,13.4142743 13.7486109,11.6679699 13.75,9.8175 L13.75,5.43 C13.7494748,4.83346395 13.5120775,4.26155207 13.09,3.84 Z M12.2500409,9.84 C12.2559529,11.2293714 11.6122743,12.5416988 10.51,13.3875 L7.45,15.75 L6.55,15.75 L3.49,13.365 C2.38772571,12.5191988 1.74404715,11.2068714 1.74995907,9.8175 L1.74995907,5.43 C1.75082847,5.23324509 1.82894188,5.04469548 1.9675,4.905 L4.6225,2.25 L9.3775,2.25 L12.0325,4.905 C12.1710581,5.04469548 12.2491715,5.23324509 12.2500409,5.43 L12.2500409,9.84 Z M9.865,6 C9.71918368,5.85707142 9.48581632,5.85707142 9.34,6 L5.785,9.555 L4.66,8.4375 C4.59195,8.36499208 4.49693943,8.32386102 4.3975,8.32386102 C4.29806057,8.32386102 4.20305,8.36499208 4.135,8.4375 L3.7375,8.835 C3.66650776,8.90541247 3.62657563,9.00126092 3.62657563,9.10125 C3.62657563,9.20123908 3.66650776,9.29708753 3.7375,9.3675 L5.5,11.1375 C5.56805,11.2100079 5.66306057,11.251139 5.7625,11.251139 C5.86193943,11.251139 5.95695,11.2100079 6.025,11.1375 L10.24,6.9225 C10.3109922,6.85208753 10.3509244,6.75623908 10.3509244,6.65625 C10.3509244,6.55626092 10.3109922,6.46041247 10.24,6.39 L9.865,6 Z" id="Icon-color"></path>
            </g>
        </g>
    </g>
</svg>