<?xml version="1.0" encoding="UTF-8"?>
<svg width="14px" height="18px" viewBox="0 0 14 18" version="1.1" xmlns="http://www.w3.org/2000/svg" xmlns:xlink="http://www.w3.org/1999/xlink">
    <title>security_no</title>
    <g id="Page-1" stroke="none" stroke-width="1" fill="none" fill-rule="evenodd">
        <g id="Thorcahin-Network-V8" transform="translate(-891.000000, -234.000000)" fill="#F7517F" fill-rule="nonzero">
            <g id="security_no" transform="translate(891.000000, 234.000000)">
                <path d="M13.09,3.84 L10.4425,1.1925 C10.1606527,0.908970452 9.77728344,0.749683218 9.3775,0.749999528 L4.6225,0.749999528 C4.22271656,0.749683218 3.83934729,0.908970452 3.5575,1.1925 L0.91,3.84 C0.487922538,4.26155207 0.250525156,4.83346395 0.25,5.43 L0.25,9.8175 C0.251389064,11.6679699 1.10655238,13.4142743 2.5675,14.55 L5.6275,16.935 C5.891355,17.139775 6.21600617,17.2506315 6.55,17.2499995 L7.45,17.2499995 C7.78399383,17.2506315 8.108645,17.139775 8.3725,16.935 L11.4325,14.55 C12.8934476,13.4142743 13.7486109,11.6679699 13.75,9.8175 L13.75,5.43 C13.7494748,4.83346395 13.5120775,4.26155207 13.09,3.84 Z M12.2500409,9.84 C12.2559529,11.2293714 11.6122743,12.5416988 10.51,13.3875 L7.45,15.75 L6.55,15.75 L3.49,13.365 C2.38772571,12.5191988 1.74404715,11.2068714 1.74995907,9.8175 L1.74995907,5.43 C1.75082847,5.23324509 1.82894188,5.04469548 1.9675,4.905 L4.6225,2.25 L9.3775,2.25 L12.0325,4.905 C12.1710581,5.04469548 12.2491715,5.23324509 12.2500409,5.43 L12.2500409,9.84 Z M9.3175,6.33 L8.92,5.9325 C8.85195,5.85999208 8.75693943,5.81886102 8.6575,5.81886102 C8.55806057,5.81886102 8.46305,5.85999208 8.395,5.9325 L7,7.32 L5.605,5.9325 C5.53695,5.85999208 5.44193943,5.81886102 5.3425,5.81886102 C5.24306057,5.81886102 5.14805,5.85999208 5.08,5.9325 L4.6825,6.33 C4.60999208,6.39805 4.56886102,6.49306057 4.56886102,6.5925 C4.56886102,6.69193943 4.60999208,6.78695 4.6825,6.855 L6.07,8.25 L4.6825,9.645 C4.60999208,9.71305 4.56886102,9.80806057 4.56886102,9.9075 C4.56886102,10.0069394 4.60999208,10.10195 4.6825,10.17 L5.08,10.5675 C5.14805,10.6400079 5.24306057,10.681139 5.3425,10.681139 C5.44193943,10.681139 5.53695,10.6400079 5.605,10.5675 L7,9.18 L8.395,10.5675 C8.46305,10.6400079 8.55806057,10.681139 8.6575,10.681139 C8.75693943,10.681139 8.85195,10.6400079 8.92,10.5675 L9.3175,10.17 C9.39000792,10.10195 9.43113898,10.0069394 9.43113898,9.9075 C9.43113898,9.80806057 9.39000792,9.71305 9.3175,9.645 L7.93,8.25 L9.3175,6.855 C9.39000792,6.78695 9.43113898,6.69193943 9.43113898,6.5925 C9.43113898,6.49306057 9.39000792,6.39805 9.3175,6.33 L9.3175,6.33 Z" id="Icon-color"></path>
            </g>
        </g>
    </g>
</svg>