<?xml version="1.0" encoding="UTF-8"?>
<svg width="14px" height="18px" viewBox="0 0 14 18" version="1.1" xmlns="http://www.w3.org/2000/svg" xmlns:xlink="http://www.w3.org/1999/xlink">
    <title>3791F388-70B0-4FD7-AE06-003E4EB02686</title>
    <g id="Page-1" stroke="none" stroke-width="1" fill="none" fill-rule="evenodd">
        <g id="elements-for-network-dashboard" transform="translate(-357.000000, -669.000000)" fill="#F77651" fill-rule="nonzero">
            <g id="Group-Copy" transform="translate(48.000000, 591.000000)">
                <g id="security_orange" transform="translate(309.000000, 78.000000)">
                    <path d="M13.75,5.43 C13.7494748,4.83346395 13.5120775,4.26155207 13.09,3.84 L10.4425,1.1925 C10.1606527,0.908970452 9.77728344,0.749683218 9.3775,0.749999528 L4.6225,0.749999528 C4.22271656,0.749683218 3.83934729,0.908970452 3.5575,1.1925 L0.91,3.84 C0.487922538,4.26155207 0.250525156,4.83346395 0.25,5.43 L0.25,9.8175 C0.251389064,11.6679699 1.10655238,13.4142743 2.5675,14.55 L5.6275,16.935 C5.891355,17.139775 6.21600617,17.2506315 6.55,17.2499995 L7.45,17.2499995 C7.78399383,17.2506315 8.108645,17.139775 8.3725,16.935 L11.4325,14.55 C12.8934476,13.4142743 13.7486109,11.6679699 13.75,9.8175 L13.75,5.43 Z M12.2500409,9.8175 C12.2559529,11.2068714 11.6122743,12.5191988 10.51,13.365 L7.45,15.75 L6.55,15.75 L3.49,13.365 C2.38772571,12.5191988 1.74404715,11.2068714 1.74995907,9.8175 L1.74995907,5.43 C1.75082847,5.23324509 1.82894188,5.04469548 1.9675,4.905 L4.6225,2.25 L9.3775,2.25 L12.0325,4.905 C12.1710581,5.04469548 12.2491715,5.23324509 12.2500409,5.43 L12.2500409,9.8175 Z M7.375,10.5 L6.625,10.5 C6.41789322,10.5 6.25,10.6678932 6.25,10.875 L6.25,11.625 C6.25,11.8321068 6.41789322,12 6.625,12 L7.375,12 C7.58210678,12 7.75,11.8321068 7.75,11.625 L7.75,10.875 C7.75,10.6678932 7.58210678,10.5 7.375,10.5 Z M7.51,5.99999018 L6.49,5.99999018 C6.38223256,5.9992209 6.27933909,6.04484439 6.2075624,6.12523429 C6.13578571,6.20562418 6.10206475,6.31300884 6.115,6.42 L6.415,8.835 C6.42644189,8.92968095 6.50713269,9.00068885 6.6025,9.00000497 L7.3975,9.00000497 C7.49286731,9.00068885 7.57355811,8.92968095 7.585,8.835 L7.885,6.42 C7.89793525,6.31300884 7.86421429,6.20562418 7.7924376,6.12523429 C7.72066091,6.04484439 7.61776744,5.9992209 7.51,5.99999018 Z" id="Icon-color"></path>
                </g>
            </g>
        </g>
    </g>
</svg>